<?xml version="1.0" standalone="no"?>
<!DOCTYPE svg PUBLIC "-//W3C//DTD SVG 20010904//EN"
 "http://www.w3.org/TR/2001/REC-SVG-20010904/DTD/svg10.dtd">
<svg version="1.0" xmlns="http://www.w3.org/2000/svg"
 width="192.000000pt" height="192.000000pt" viewBox="0 0 192.000000 192.000000"
 preserveAspectRatio="xMidYMid meet">
<metadata>
Created by potrace 1.11, written by Peter Selinger 2001-2013
</metadata>
<g transform="translate(0.000000,192.000000) scale(0.100000,-0.100000)"
fill="#000000" stroke="none">
<path d="M310 1756 c-5 -14 -16 -62 -26 -108 -9 -46 -20 -101 -25 -123 -5 -22
-13 -62 -19 -90 -5 -27 -18 -90 -29 -140 -10 -49 -26 -124 -35 -165 -9 -41
-25 -115 -35 -165 -11 -49 -26 -124 -35 -165 -9 -41 -25 -118 -36 -170 -45
-207 -70 -344 -70 -386 l0 -44 115 0 c111 0 115 1 119 23 3 12 10 51 16 87 21
119 33 165 44 172 15 10 288 10 304 0 11 -7 27 -82 51 -237 l6 -40 128 -3 128
-3 -5 23 c-3 13 -17 79 -31 148 -14 69 -30 143 -35 165 -5 22 -11 51 -13 65
-5 27 -54 259 -68 325 -5 22 -13 63 -19 90 -5 28 -21 104 -35 170 -14 66 -34
163 -45 215 -57 280 -72 345 -81 361 -9 17 -23 19 -135 19 -123 0 -125 0 -134
-24z m159 -476 c7 -41 16 -95 20 -120 45 -242 78 -445 74 -452 -2 -5 -58 -8
-124 -8 -88 0 -119 3 -119 13 0 16 36 223 81 467 5 30 14 80 19 110 18 115 30
112 49 -10z"/>
<path d="M1171 1770 c-18 -4 -45 -14 -58 -21 -54 -29 -53 -12 -53 -767 l0
-699 22 -28 c41 -52 60 -55 400 -55 285 0 317 2 355 19 23 11 46 28 52 39 6
11 11 110 12 238 l1 219 -123 0 -124 0 -3 -153 -3 -152 -167 2 -167 3 0 570 0
570 168 3 167 2 0 -150 0 -151 128 3 c70 2 126 6 125 11 -2 4 -3 101 -3 216 0
208 0 210 -25 239 -18 22 -39 32 -81 41 -65 13 -569 14 -623 1z"/>
</g>
</svg>
